<svg xmlns="http://www.w3.org/2000/svg" version="1.1" xmlns:xlink="http://www.w3.org/1999/xlink" preserveAspectRatio="none" x="0px" y="0px" width="400px" height="400px" viewBox="0 0 400 400">
	<defs>
		<g id="Layer0_0_FILL">
			<path fill="#000000" stroke="none" d="
			M 221 119.65
			Q 221 119.9 220.95 120.15 220.45 124.25 218.95 127.35 218.7 127.35 218.5 127.25 215.7 125.7 212.8 124.25 212.55 124.25 212.3 124.3 199.95 125.9 187.2 124.25 187.2 124.5 187.1 124.55 183.6 126.05 180.05 127.35 180.55 123.45 179.5 121.45 178.9 120.25 178.1 119.6 167 110.45 148.3 108.9 148.3 108.65 148.25 108.65 143.95 108.4 139.6 108.4 139.6 108.65 139.6 108.9 139.35 108.9 139.15 109 127.3 115.55 115 121.7 112.8 124.6 110.85 127.8 110.2 128.9 109.3 129.9 100.1 140.6 93 153.45 94.1 169.5 100.9 179.55 103.4 183.25 106 186.55 126.05 212.3 157.8 226.6 159.4 227.3 162.1 227.15 162.1 227.4 162.1 227.65 161.35 227.65 161.35 227.75 160.7 235 161.1 242 157.9 248.55 153.2 253.55 139.45 268 120.65 277.35 120.65 277.6 120.65 277.85 120.4 277.85 120.15 277.85 120.15 279.9 120.4 281.9 120.4 281.95 120.65 281.95 121.05 282.8 122.7 282.5 122.95 282.45 123.2 282.45 125.4 283.35 128.8 282.7 128.85 282.7 128.85 282.45 151.65 277.15 164.3 261.6 164.4 261.45 164.7 261.45 171.15 282.9 175.35 306.55 177.6 319.1 175.8 329.95 174.45 338.05 173.3 346.5 172.85 349.8 172.85 353.1 177.85 362.45 192.3 362.3 192.6 362.3 192.85 362.3 194.35 361.05 196.3 360.05 196.4 360 196.4 359.75 199 360.8 202.55 360.8 202.8 360.8 203.05 360.8 204.9 359.25 206.75 357.85 206.9 357.7 207.15 357.7 207.4 357.7 207.55 357.85 207.7 357.95 207.7 358.2 207.4 358.2 207.35 358.35 206.2 360.6 204.1 361.8 205.95 364.05 209.75 364.35 210 364.35 210.25 364.35 216 362.45 225.6 363.05 228.55 363.2 230.2 361.8 233.7 363.1 235.2 360.7 235.35 360.55 235.35 360.25 236.2 358.6 235.85 355.65 235.85 355.4 235.85 355.15 231.4 348.35 227.45 341.35 227 340.45 226.1 340.3 226.1 340.05 226.15 339.8 226.85 337 224.55 337.25 226.1 336.2 225.95 333.1 225.6 325.95 226.4 318.9 227.05 312.95 224.55 314.2 224.55 313.95 224.55 313.7 224.55 313.45 224.55 313.15 232.5 305.55 228.5 291.85 228.4 291.65 227.65 291.65 227.15 291.65 226.6 291.65 226.6 291.4 226.6 291.15 231.1 290.75 231.15 285 231.2 282.4 231.75 279.4 233.45 270.6 235.85 262.5 248.55 276.9 270.65 281.9 270.9 281.95 271.15 281.95 272.6 282.85 275.2 282.2 275.25 282.2 275.25 281.95 277.3 281.95 279.35 281.7
			L 279.35 281.45
			Q 279.6 281.45 279.65 281.4 280.25 278.75 279.35 277.35 278.9 276.25 277.8 275.75 253.3 265.75 239.95 244.55 241.35 239.85 241.95 234.35 242 234.05 242 233.8 242.25 233.8 242.25 233.75 242.9 230.6 242 228.7 242 228.45 242.05 228.2 242.3 226.85 240.95 227.15 240.95 226.9 240.95 226.65 260.9 218.2 277.1 206 282.4 202 285.8 196.3 286 195.95 286 195.4 283.4 192.55 290.1 192.85 290.35 192.85 290.6 192.85 300.4 178.05 306.4 159.55 306.5 159.35 306.5 159.05 306.75 159.05 306.75 159 307.4 155.35 306.5 152.95 303.8 144.65 297.75 139.7 291.65 134.75 287.9 127.15 287.75 126.9 287.35 126.5 275.8 115.5 259.9 108.9 259.9 108.65 259.85 108.65 256.3 108.4 252.75 108.4 252.75 108.65 252.75 108.9 252.5 108.9 252.2 108.9 232.7 110.35 221 119.65 Z"/>

			<path fill="#000000" stroke="none" d="
			M 200.6 43.2
			Q 199.05 37.45 193.85 35.7 193.7 36.55 193.7 36.8 191 60.2 181.55 76.15 172.75 73.15 164.45 69.3 158.6 66.6 153.9 69.5 154.6 72.9 156.4 75.2 161.95 82.15 164.75 91.6 167.1 99.6 170.8 105.85 177.55 104.1 183.2 101.4 188.95 98.6 196.45 98.2 212.65 97.3 227.15 98.65 219 94.5 208.7 92.7 189 89.4 174.9 96.6 174.65 96.6 174.6 96.5 170.7 87.5 167.25 78.2 167.5 78.2 167.7 78.3 174.85 81.3 183.1 83.3 183.35 83.3 183.45 83.15 193.3 71.45 196.95 53.6 196.95 53.85 197 54.1 202.05 68.7 211.25 79.2 211.5 79.2 211.75 79.15 224.95 73.95 237.35 67.95 237.35 68.2 237.25 68.4 231.5 81.3 229.2 95.05 235.4 85.7 240.8 75.3 244.4 68.4 243.5 61.8 243.6 61 242.5 61.25 227.4 64.85 212.8 71.5 204.95 58.9 200.6 43.2 Z"/>
		</g>
	</defs>

	<g transform="matrix( 1, 0, 0, 1, 0,0) ">
		<use xlink:href="#Layer0_0_FILL"/>
	</g>
</svg>	